# xmcd
#
# Track frame offsets:
#       150
#       11749
#       25296
#       38416
#       49596
#       61582
#       75345
#       87533
#       102043
#       115869
#       127287
#       141644
#       156100
#       167595
#       180404
#       192043
#       203002
#       216675
#
# Disc length: 3059 seconds
#
# Revision: 1
# Processed by: cddbd v1.5.2PL0 Copyright (c) Steve Scherf et al.
# Submitted via: FreeDbEdit v0.1
#
DISCID=ef0bf112
DTITLE=Nat King Cole - Too Marvellous
DYEAR=1900
DGENRE=Vocal
TTITLE0=After You Get What You Want
TTITLE1=On the Sunny Side of the Street
TTITLE2=How Deep Is the Ocean
TTITLE3=You'r the Cream in My Coffee
TTITLE4=If You Don't Like My Apples
TTITLE5=I Miss You So
TTITLE6=Naughty Angeline
TTITLE7=It's Kind of Lonesome Out Tonight
TTITLE8=What'll I Do
TTITLE9=Makin Whoopie
TTITLE10=There I've Said It Again
TTITLE11=I'll String Along With You
TTITLE12=Too Marvellous for Words
TTITLE13=Dream a Little Dream of Me
TTITLE14=Love Nest
TTITLE15=Little Girl
TTITLE16=If I Had You
TTITLE17=Nature Boy
EXTD=
EXTT0=
EXTT1=
EXTT2=
EXTT3=
EXTT4=
EXTT5=
EXTT6=
EXTT7=
EXTT8=
EXTT9=
EXTT10=
EXTT11=
EXTT12=
EXTT13=
EXTT14=
EXTT15=
EXTT16=
EXTT17=
PLAYORDER=
